<?xml version="1.0" encoding="UTF-8"?>
<svg width="153px" height="43px" viewBox="0 0 153 43" version="1.1" xmlns="http://www.w3.org/2000/svg" xmlns:xlink="http://www.w3.org/1999/xlink">
    <!-- Generator: Sketch 44.1 (41455) - http://www.bohemiancoding.com/sketch -->
    <title>logo_c</title>
    <desc>Created with Sketch.</desc>
    <defs></defs>
    <g id="Page-1" stroke="none" stroke-width="1" fill="none" fill-rule="evenodd">
        <g id="电脑" transform="translate(-194.000000, -498.000000)" fill-rule="nonzero">
            <g id="logo_c" transform="translate(193.000000, 498.000000)">
                <path d="M64.9,12.1 L56.3,34.7 L60,34.7 L62.1,28.8 L71.7,28.8 L73.8,34.7 L77.5,34.7 L68.8,12.1 L64.9,12.1 Z M63,26 L66.7,15.8 L66.8,15.8 L70.5,26 L63,26 Z M92,20.7 C90.7,18.8 89,17.9 87,17.9 C84.7,17.9 82.9,18.7 81.5,20.5 C80.2,22.2 79.7,24.1 79.7,26.5 C79.7,29.1 80.3,31.1 81.5,32.6 C82.9,34.3 84.7,35.2 87.1,35.2 C89.3,35.2 91,34.4 92.1,32.8 L92.1,34.7 L95.2,34.7 L95.2,11.6 L92,11.6 C92,11.5 92,20.7 92,20.7 Z M92.2,26.7 C92.2,28.4 91.8,29.7 91.2,30.7 C90.4,31.9 89.3,32.4 87.9,32.4 C86.2,32.4 85.1,31.8 84.3,30.7 C83.6,29.7 83.4,28.3 83.4,26.5 C83.4,24.7 83.8,23.3 84.4,22.4 C85.2,21.2 86.3,20.7 88.1,20.7 C89.4,20.7 90.4,21.2 91.1,22.2 C91.9,23.4 92.4,24.8 92.4,26.4 L92.4,26.8 C92.4,26.7 92.2,26.7 92.2,26.7 Z M118.3,17.9 C117.1,17.9 116.2,18.2 115.5,18.5 C114.7,19 113.8,19.7 113.2,20.7 C112.2,18.9 110.4,17.9 108.2,17.9 C106.5,17.9 105.1,18.7 103.7,20.2 L103.7,18.4 L100.4,18.4 L100.4,34.7 L103.7,34.7 L103.7,24.9 C103.7,23.7 104.1,22.7 104.7,22.1 C105.3,21.3 106.2,20.8 107.3,20.8 C109.5,20.8 110.6,22.1 110.6,24.7 L110.6,34.8 L113.9,34.8 L113.9,24.6 C113.9,23.3 114.3,22.4 114.8,21.8 C115.4,21.1 116.2,20.8 117.1,20.8 C118.4,20.8 119.3,21.2 119.9,21.7 C120.5,22.3 120.7,23.4 120.7,24.5 L120.7,34.6 L124,34.6 L124,23.9 C124,22.1 123.4,20.7 122.3,19.5 C121.3,18.4 119.9,17.9 118.3,17.9 Z M140,28.3 C139.6,29.5 139.2,30.5 138.3,31.1 C137.5,31.8 136.6,32.1 135.9,32.1 C134.6,32.1 133.7,31.7 133.1,31.1 C132.5,30.5 132.2,29.4 132.2,28.1 L132.2,18.2 L129,18.2 L129,28.4 C129,32.8 130.9,35.1 134.9,35.1 C137,35.1 138.6,34.2 139.9,32.4 L139.9,34.6 L143.2,34.6 L143.2,18.3 L139.9,18.3 L140,28.3 C139.9,28.3 140,28.3 140,28.3 Z M150.7,16.4 C151.3,16.4 151.9,16.1 152.4,15.7 C152.9,15.2 153.1,14.7 153.1,14 C153.1,13.3 152.8,12.7 152.4,12.3 C151.9,11.8 151.5,11.6 150.7,11.6 C149.9,11.6 149.4,11.9 149,12.3 C148.5,12.7 148.3,13.2 148.3,14 C148.3,14.8 148.6,15.2 149,15.7 C149.5,16.1 150,16.4 150.7,16.4 Z M149,34.7 L152.3,34.7 L152.3,18.3 L149,18.3 L149,34.7 Z" id="Shape" fill="#253137"></path>
                <g id="Group" transform="translate(0.000000, 19.000000)">
                    <path d="M43,23.7 C40.6,22.7 33.1,19.8 22.4,19.8 C11.7,19.8 4.2,22.7 1.8,23.7 C1.2,23.9 0.9,23.6 1,22.8 C1.6,13.5 9,2.5 19.5,0.5 C20.2,0.3 20.9,0.8 20.3,1.3 C16.6,3.9 13.9,10.7 13.9,12.2 C13.9,14 19.3,14.6 22.4,14.6 C25.5,14.6 30.9,13.9 30.9,12.2 C30.9,10.7 28.1,3.9 24.5,1.3 C23.9,0.7 24.6,0.3 25.3,0.5 C35.8,2.4 43.2,13.5 43.8,22.8 C43.9,23.7 43.6,23.9 43,23.7 Z" id="Shape" fill="#5EA7ED"></path>
                    <path d="M43,23.7 C40.6,22.7 33.1,19.8 22.4,19.8 C11.7,19.8 4.2,22.7 1.8,23.7 C1.6,23.8 1.4,23.8 1.3,23.7 C7.3,18.7 14.1,17.7 20,17 C27.1,16.2 30.9,13.9 30.9,12.2 C30.9,10.7 28.1,3.9 24.5,1.3 C23.9,0.7 24.6,0.3 25.3,0.5 C35.8,2.4 43.2,13.5 43.8,22.8 C43.9,23.7 43.6,23.9 43,23.7 Z" id="Shape" fill="#5496D5"></path>
                </g>
                <g id="Group" transform="translate(13.000000, 0.000000)">
                    <path d="M9.4,0 C14.6,0 18.8,4.2 18.8,9.4 C18.8,14.6 14.6,18.8 9.4,18.8 C4.2,18.8 0,14.6 0,9.4 C0,4.2 4.2,0 9.4,0 Z" id="Shape" fill="#FA5959"></path>
                    <path d="M18.8,9.4 C18.8,14.6 14.6,18.8 9.4,18.8 C7.6,18.8 5.9,18.3 4.5,17.4 C5.6,17.8 6.7,18 7.9,18 C13.1,18 17.3,13.8 17.3,8.6 C17.3,5.2 15.5,2.3 12.8,0.6 C16.3,2 18.8,5.4 18.8,9.4 Z" id="Shape" fill="#E95050"></path>
                </g>
            </g>
        </g>
    </g>
</svg>