<?xml version="1.0" encoding="UTF-8"?>
<svg width="360px" height="183px" viewBox="0 0 360 183" version="1.1" xmlns="http://www.w3.org/2000/svg" xmlns:xlink="http://www.w3.org/1999/xlink">
    <!-- Generator: Sketch 44.1 (41455) - http://www.bohemiancoding.com/sketch -->
    <title>无结果</title>
    <desc>Created with Sketch.</desc>
    <defs></defs>
    <g id="Page-1" stroke="none" stroke-width="1" fill="none" fill-rule="evenodd">
        <g id="电脑" transform="translate(-210.000000, -839.000000)" fill-rule="nonzero" fill="#A5AEBC">
            <g id="无结果" transform="translate(210.000000, 839.000000)">
                <path d="M200.584473,40.9159976 C197.815666,40.5305347 195.282082,42.4980649 194.903069,45.1978228 C194.716407,46.5279735 195.05824,47.8520535 195.867485,48.9253551 C196.67597,49.9986567 197.854364,50.6925658 199.184514,50.8792271 C199.422393,50.912993 199.658375,50.9289275 199.891322,50.9289275 C202.380897,50.9289275 204.519913,49.0668685 204.866677,46.5977812 C205.054097,45.2672512 204.711506,43.9427916 203.90302,42.86949 C203.093396,41.7969473 201.915003,41.1026589 200.584473,40.9159976 Z M203.443196,46.3982211 C203.171551,48.3274325 201.370574,49.7292881 199.384454,49.4561256 C198.434075,49.322959 197.592583,48.8267132 197.015147,48.06034 C196.437712,47.2939667 196.193383,46.3485203 196.326549,45.3973833 C196.574293,43.6335868 198.101348,42.3041954 199.879941,42.3041954 C200.046115,42.3041954 200.215324,42.3155771 200.385292,42.3390995 C201.33567,42.4722661 202.177163,42.9685118 202.754599,43.7348851 C203.332034,44.5020166 203.577122,45.4470837 203.443196,46.3982211 Z" id="Shape"></path>
                <path d="M235.392228,61.7742449 C232.616971,61.3853674 230.089837,63.3570707 229.710065,66.0568286 C229.523403,67.3873586 229.865995,68.7110593 230.674481,69.7843609 C231.482966,70.8576625 232.66136,71.5515716 233.992648,71.7382329 C234.229769,71.7712402 234.425156,71.7298862 234.697939,71.7871744 C237.187893,71.7871744 239.327288,69.9251153 239.674053,67.4560281 C240.060275,64.7099852 238.13941,62.1608459 235.392228,61.7742449 Z M238.250952,67.2568476 C237.980065,69.1856798 236.176433,70.5879146 234.192209,70.3147521 C233.241831,70.1815855 232.400338,69.6853398 231.822143,68.9189665 C231.244708,68.1525932 231.000379,67.2071469 231.133546,66.2567684 C231.382048,64.4922133 232.909862,63.1624423 234.687696,63.1624423 C234.85387,63.1624423 235.023079,63.173824 235.192288,63.1973464 C237.154507,63.4739239 238.52677,65.2946292 238.250952,67.2568476 Z" id="Shape"></path>
                <path d="M290.905335,69.576454 C288.128182,69.181127 285.601426,71.1577624 285.222413,73.8582792 C285.035752,75.1884299 285.377585,76.5125099 286.186829,77.5858115 C286.995315,78.6591132 288.173708,79.3530222 289.504618,79.5396835 C289.740979,79.5726908 289.976961,79.5890047 290.209908,79.5890047 C292.699483,79.5890047 294.839257,77.7277046 295.186781,75.2578584 C295.373442,73.9277077 295.031609,72.6036277 294.222365,71.5303261 C293.4135,70.4574037 292.235106,69.7631153 290.905335,69.576454 Z M293.7633,75.0579186 C293.490896,76.9871301 291.682331,78.3931592 289.703799,78.116582 C288.75342,77.9834154 287.911928,77.4871697 287.334492,76.7207964 C286.757056,75.9544232 286.512728,75.0089768 286.645894,74.0578397 C286.893638,72.2940433 288.420693,70.9642722 290.198527,70.9642722 C290.36546,70.9642722 290.534668,70.9760332 290.705395,70.9999352 C291.655774,71.1334815 292.497266,71.6293476 293.074702,72.3957208 C293.652138,73.1620941 293.896467,74.1075401 293.7633,75.0579186 Z" id="Shape"></path>
                <path d="M342.923857,60.9206115 C340.153532,60.5260433 337.620707,62.5019198 337.241694,65.2024366 C337.055032,66.5325873 337.396865,67.8566673 338.206109,68.9299689 C339.014595,70.0032706 340.192989,70.6971796 341.523898,70.8838409 C341.76026,70.9168482 341.996242,70.9327824 342.22843,70.9327824 C342.229189,70.9327824 342.22843,70.9327824 342.229189,70.9327824 C344.719143,70.9327824 346.858538,69.0707234 347.205303,66.6023951 C347.392723,65.2718651 347.050131,63.9474054 346.241645,62.8741038 C345.43278,61.8015611 344.254387,61.1072727 342.923857,60.9206115 Z M345.781442,66.4028349 C345.510556,68.3316671 343.706924,69.7346609 341.7227,69.4607394 C340.772321,69.3275728 339.930829,68.8313271 339.353393,68.0649538 C338.775578,67.2985806 338.531629,66.3531342 338.664795,65.4019971 C338.912539,63.6382007 340.439594,62.3084296 342.216669,62.3084296 C342.383602,62.3084296 342.552811,62.3201906 342.723538,62.3440926 C343.673916,62.4772592 344.515409,62.973505 345.092845,63.7398782 C345.67028,64.5062515 345.915747,65.4516975 345.781442,66.4028349 Z" id="Shape"></path>
                <path d="M326.807258,41.2851467 L326.633876,41.7191717 C321.687355,19.9317919 303.424533,4.56714982 277.332943,0.89994068 C274.009844,0.433287621 270.669671,0.196167374 267.406894,0.196167374 C245.942378,0.196167374 228.139758,10.1901277 219.244519,26.7399925 C196.748813,29.3562842 183.107752,36.1754868 181.792777,45.532447 C180.804459,52.5644891 187.177496,60.0555963 198.598732,66.8721437 C198.252726,68.5133963 198.054304,71.7219195 200.279441,75.5974151 C203.358591,80.9597504 211.119826,87.5129991 229.565516,92.7876947 L216.371758,127.813601 C201.992019,126.143514 186.998044,125.280017 171.5469,125.280017 C147.389075,125.280017 126.096423,127.181912 107.461796,130.227676 C107.464831,130.200739 107.475833,130.176078 107.475833,130.148383 C107.475833,130.101338 107.47166,130.053534 107.461796,130.005352 L105.783363,121.606738 C108.705065,121.582456 112.76229,119.949551 112.76229,116.347977 C112.76229,113.123139 109.732461,99.214606 109.603467,98.6235123 C109.519242,98.2369112 109.132641,97.9884089 108.748696,98.0752901 C108.360577,98.1595153 108.11511,98.5427018 108.199715,98.9308203 C108.230446,99.0734719 111.325151,113.276414 111.325151,116.347597 C111.325151,118.985135 108.045302,120.171116 105.71659,120.171116 C105.64147,120.171116 105.573179,120.192362 105.504889,120.213608 L99.6759006,91.0493181 C99.598125,90.6604406 99.2210089,90.4043504 98.8302342,90.4859199 C98.4891604,90.5538313 98.2527987,90.8535515 98.2527987,91.188555 C98.2527987,91.2355997 98.2569719,91.2834033 98.2668361,91.3315859 L102.258805,111.30471 C96.8991256,112.123819 94.8837923,111.205309 94.1602905,110.573241 C93.5699558,110.057268 93.5756464,109.530291 93.5748879,109.525359 C93.57982,109.464277 93.5764054,109.403194 93.5657826,109.342871 L91.2575579,96.6358741 C91.1866115,96.2450998 90.8091158,95.9874922 90.4217558,96.056921 C90.0313608,96.1286263 89.771856,96.5027074 89.8428027,96.8927231 L92.1392661,109.530671 C92.1426807,109.85619 92.2417022,110.762558 93.1435185,111.591152 C94.2153027,112.577193 95.9942747,113.071162 98.4557738,113.071162 C99.6527575,113.071162 101.023503,112.945584 102.540315,112.711119 L106.053111,130.286102 C106.064493,130.34339 106.091051,130.392332 106.114573,130.443171 C99.9888996,131.469428 94.1625673,132.622022 88.6139503,133.869086 C88.1969977,131.104832 82.2636767,93.2763526 68.5509101,83.6522998 C65.7805851,81.7075331 62.8448452,81.031076 59.8290533,81.6430364 C40.5536318,85.5466068 45.1234159,113.8971 45.6192823,116.666666 C44.4401299,116.52667 43.2249357,116.644282 41.9824248,117.025571 C39.5983216,117.758179 37.7817898,119.322035 36.5844264,121.671614 C31.8924779,130.882508 38.1300718,149.331991 38.3971644,150.112402 L39.757287,149.646508 C39.6935492,149.461364 33.4468496,130.997843 37.865256,122.324548 C38.8934101,120.30618 40.3787323,119.022315 42.4046888,118.399732 C44.5452221,117.741485 46.5006116,117.986193 48.3835369,119.146376 C55.867815,123.760929 58.871087,141.047953 58.9006796,141.222095 L60.3184697,140.981939 C60.1936495,140.245538 57.1763401,122.879979 49.1389074,117.923594 C48.2135687,117.352987 47.2548435,116.978906 46.2703199,116.779346 L47.0712175,116.618863 C47.0564212,116.543743 45.5813429,109.032528 46.4964377,101.132056 C47.7029063,90.7203845 52.2844513,84.6372031 60.1135975,83.0517216 C62.7314066,82.5209514 65.2904097,83.1196329 67.7242133,84.827279 C81.0936297,94.2111762 87.097518,133.452513 87.2083005,134.190052 C26.4284653,148.149424 0.391508713,173.627915 0.0405706282,173.981129 L1.06113689,174.993728 C1.54030987,174.510761 50.4299805,126.716776 171.546521,126.716776 C186.814798,126.716776 201.633494,127.562063 215.849715,129.198383 L203.921231,160.864768 C203.780856,161.236193 203.969035,161.650869 204.340081,161.790486 C204.423547,161.821975 204.50929,161.836771 204.593515,161.836771 C204.88413,161.836771 205.157672,161.659216 205.265799,161.371256 L217.319482,129.371766 C223.505099,130.110443 229.580693,130.990254 235.513634,132.03624 C235.157384,132.874318 234.881566,133.735539 234.696802,134.605107 L234.575396,135.123737 C234.433503,135.719004 234.316271,136.222837 234.255189,136.584778 C233.144707,138.861133 231.453754,141.538507 231.422644,141.588587 C229.941116,144.132035 229.315877,146.832552 229.540477,149.434805 C229.296528,149.593012 229.010845,149.677237 228.717575,149.614258 C228.426201,149.552417 228.176561,149.380552 228.014181,149.130533 C227.851421,148.880134 227.796789,148.581552 227.859009,148.287523 C227.88936,148.143733 227.94589,148.010945 228.027459,147.891816 C228.454276,147.602719 228.755893,147.156933 228.864779,146.647408 C228.97632,146.123847 228.877299,145.587765 228.586305,145.138564 C228.294172,144.688604 227.845351,144.379779 227.32141,144.268237 C226.52772,144.100546 225.677881,144.459072 225.32239,145.010709 C224.664144,145.69096 224.211908,146.541937 224.014244,147.472208 C223.435291,150.196627 225.177841,152.883485 227.898845,153.462438 C228.24561,153.53604 228.599204,153.573221 228.950901,153.573221 C229.498365,153.573221 230.035205,153.450298 230.555352,153.27426 C231.980351,156.3849 234.712357,158.760277 238.2961,159.96409 C238.381843,160.005443 240.460535,160.993761 245.530738,162.071616 C250.589559,163.146055 253.105691,163.126327 253.139457,163.116842 C253.615974,163.158955 254.085662,163.180201 254.54928,163.179442 C258.166409,163.179442 261.347236,161.909236 263.612969,159.531962 C266.135551,156.886078 267.217579,153.188897 266.66101,149.116496 C266.656078,149.085765 266.213326,145.971711 266.163246,143.291302 C266.162867,143.2674 266.150347,143.24843 266.147691,143.225288 C266.256577,142.910771 266.34839,142.450568 266.453102,141.865924 C266.487627,141.673572 266.518358,141.499431 266.544915,141.376128 C266.689464,140.695118 266.762686,139.998554 266.801764,139.298195 C275.442431,141.830641 283.245398,144.600966 290.232293,147.438443 L287.41037,181.282541 C287.377363,181.677868 287.670634,182.025012 288.06672,182.05802 C288.087207,182.060296 288.107315,182.060675 288.127043,182.060675 C288.496951,182.060675 288.811467,181.777269 288.842198,181.40167 L291.625802,148.015879 C305.994539,153.962099 316.813298,160.143543 324.172757,164.984593 C336.277278,172.946147 341.954509,179.093066 342.010659,179.154148 L343.07182,178.184041 C342.840391,177.930607 337.253455,171.87588 325.021079,163.821375 C317.522004,158.884718 306.464607,152.566313 291.751002,146.511587 L295.513059,101.395734 C296.073043,101.400666 296.64934,101.41091 297.193768,101.41091 C319.67923,101.41091 329.05516,97.2322799 332.794074,93.0365766 C335.338661,90.1816473 334.979376,87.6283348 334.899324,87.2098647 C349.902785,83.7877432 358.673583,77.9439589 359.714257,70.5366971 C361.078173,60.8428363 349.083676,50.1803859 326.807258,41.2851467 Z M267.406895,1.63330665 C270.602898,1.63330665 273.875918,1.86549479 277.132245,2.32304255 C305.417862,6.29831827 324.279366,24.30543 326.354643,49.2315253 C326.000291,58.8699947 314.057011,63.756192 290.854876,63.756192 C284.340325,63.756192 276.864394,63.3555536 268.634609,62.5660372 C236.832023,59.5138238 224.641759,50.773756 220.015066,43.9792135 C217.262573,39.936785 216.952988,36.1584141 217.566845,34.0129487 C218.301729,31.9426031 219.195198,29.975073 220.179722,28.0724192 C220.292023,28.0598993 220.397114,28.0439648 220.509794,28.0318241 L220.454402,27.5241967 C229.06965,11.3973549 246.437485,1.63330665 267.406895,1.63330665 Z M253.232407,125.126742 C257.654607,125.944333 261.106322,128.042753 263.214606,131.195506 C265.127125,134.055368 265.846453,137.749893 265.139644,141.076787 C265.110811,141.211472 265.076286,141.401926 265.038726,141.613627 C264.972712,141.980879 264.862688,142.595495 264.783395,142.799609 C264.734833,142.922532 264.734454,143.048111 264.753802,143.169896 C264.743938,143.219217 264.725727,143.265882 264.726486,143.318239 C264.726486,143.318998 264.726486,143.319756 264.726486,143.320515 C262.750989,146.944094 257.556724,148.471908 250.518233,147.416817 C250.495848,147.413023 250.479155,147.431234 250.45715,147.431613 C250.019711,146.864042 249.411924,146.463783 248.703218,146.312785 C247.997927,146.162924 247.293395,146.297609 246.688643,146.617437 C246.676882,146.612884 246.673088,146.599606 246.660568,146.596191 C239.879305,144.81001 235.888853,141.458836 235.543226,137.32118 C235.598238,137.22709 235.638833,137.123516 235.645662,137.007422 C235.6597,136.768025 235.863054,135.91553 235.972699,135.457603 L236.101692,134.904449 C237.420082,128.705932 243.225547,123.279479 253.232407,125.126742 Z M239.25141,126.905714 C239.410755,124.832333 240.19458,122.527523 241.132438,122.327204 C242.300209,122.077563 245.237087,122.44216 247.478918,123.449067 C244.098151,123.815182 241.34338,125.09677 239.25141,126.905714 Z M260.907899,152.318949 C259.918822,156.969923 253.400857,159.539549 246.376782,158.048157 C242.950488,157.319723 239.922555,155.743347 237.852968,153.608125 C235.819803,151.511602 234.9601,149.130534 235.433582,146.903499 C235.616828,146.042278 236.003809,145.240621 236.564551,144.507634 C238.559777,146.337065 241.542182,148.004496 245.067878,149.111943 C245.034491,149.744011 245.191181,150.368492 245.542498,150.909885 C245.982593,151.586342 246.65905,152.051098 247.448187,152.218789 C247.656474,152.263178 247.868554,152.285562 248.079876,152.285562 C249.339459,152.285562 250.456391,151.486561 250.896107,150.333967 C251.961821,150.449681 253.000978,150.508487 254.000677,150.508487 C256.608243,150.508487 258.943783,150.124921 260.78877,149.437842 C261.058139,150.413639 261.10708,151.381849 260.907899,152.318949 Z M234.670244,139.207899 C234.699457,139.070559 234.723738,138.915387 234.748399,138.75718 C234.823519,138.619081 234.89788,138.479465 234.971861,138.339469 C235.799316,142.242281 239.681641,145.376823 245.955277,147.141378 C245.605477,147.484349 245.347111,147.915339 245.199148,148.397926 C238.72633,146.341239 234.022241,142.257836 234.670244,139.207899 Z M250.327398,149.744011 C250.069031,150.958068 248.826141,151.777176 247.597289,151.515396 C246.995951,151.38754 246.479977,151.033188 246.145353,150.517972 C245.810729,150.002757 245.696152,149.388141 245.824766,148.786425 C246.049366,147.731713 246.994054,146.964961 248.071909,146.964961 C248.232771,146.964961 248.394772,146.982413 248.554117,147.016179 C249.155454,147.144034 249.671428,147.497628 250.006052,148.013602 C250.341435,148.528817 250.455253,149.143053 250.327398,149.744011 Z M251.060764,149.627158 C251.121087,149.134327 251.070628,148.641496 250.893072,148.18319 C252.2126,148.361505 253.479012,148.463941 254.663476,148.463941 C259.026112,148.463941 262.408017,147.273027 264.383515,145.055098 C264.327744,145.201164 264.266283,145.34761 264.235172,145.493297 C263.58679,148.540578 257.813194,150.340037 251.060764,149.627158 Z M265.370694,132.11781 C265.085391,131.523681 264.774289,130.942831 264.409313,130.396885 C263.136072,128.491575 261.416285,126.95162 259.343663,125.788403 C261.617743,125.600603 264.01816,126.031593 264.974229,126.722088 C265.934093,127.415618 266.058154,130.007249 265.370694,132.11781 Z M228.198564,152.056409 C226.25228,151.642871 225.006734,149.720868 225.421411,147.771549 C225.562545,147.105336 225.886167,146.496411 226.435527,145.912525 C226.535307,145.765321 226.695031,145.673887 226.968953,145.673887 C226.986405,145.673887 227.004616,145.674646 227.023586,145.675405 C227.17079,145.706136 227.297886,145.794155 227.380215,145.920872 C227.462922,146.047968 227.490997,146.200105 227.458749,146.348826 C227.424983,146.50893 227.324064,146.64627 227.182172,146.726322 L226.980714,146.894773 C226.720451,147.210427 226.537963,147.590199 226.452979,147.990458 C226.311086,148.65781 226.437424,149.340717 226.808091,149.912841 C227.179516,150.485724 227.751261,150.879154 228.418233,151.020288 C228.864778,151.117033 229.327637,151.08782 229.748763,150.949342 C229.765836,151.010045 229.783667,151.071506 229.801119,151.132968 C229.83185,151.261582 229.875101,151.38792 229.910384,151.515775 C229.953635,151.667532 229.997644,151.821945 230.038998,151.966493 C229.448284,152.154672 228.811284,152.189197 228.198564,152.056409 Z M262.572674,158.540608 C260.324773,160.898913 257.015331,162.016224 253.192571,161.682738 C253.184983,161.683497 250.720069,161.705122 245.830078,160.665966 C240.963609,159.631362 238.939929,158.679086 238.838251,158.636974 C235.303071,157.443784 232.721683,155.094585 231.568709,152.022263 C231.464756,151.745307 231.387739,151.461901 231.308825,151.178873 C231.270507,151.045707 231.234464,150.91861 231.196525,150.785443 C230.549281,148.044711 231.05008,145.085069 232.651116,142.335231 C232.691332,142.271114 233.250557,141.383335 233.931946,140.208736 C234.077253,141.44897 234.821622,142.75484 236.044783,144.006835 C235.39071,144.841499 234.94151,145.761147 234.730567,146.754776 C234.206247,149.223104 235.131206,151.834843 237.337374,154.108543 C239.505223,156.344683 242.662908,157.993144 246.22844,158.751171 C247.62157,159.047476 248.996488,159.187851 250.317913,159.187851 C256.027393,159.187851 260.740966,156.560178 261.611293,152.468429 C261.840447,151.391333 261.780123,150.281989 261.458398,149.167334 C263.253684,148.370609 264.468879,147.247607 264.864964,145.888243 C265.013307,147.72071 265.225387,149.229934 265.237528,149.317194 C265.733773,152.941532 264.786809,156.217587 262.572674,158.540608 Z M290.358251,145.934909 C283.332279,143.097432 275.49289,140.330142 266.824147,137.804146 L266.80973,137.854226 C266.751683,136.568844 266.531636,135.287635 266.143138,134.054988 C267.459251,131.413277 267.683472,126.905714 265.815722,125.556973 C264.101626,124.319015 259.946139,123.925205 257.081345,124.718895 C255.960999,124.289422 254.766292,123.948348 253.493429,123.713125 C252.29986,123.492698 251.169649,123.387985 250.083069,123.355357 L250.089139,123.348149 C247.698587,121.344956 242.825668,120.493219 240.83196,120.921933 C238.461135,121.428802 237.612054,125.984169 237.804407,128.366375 C237.178029,129.095188 236.63436,129.873702 236.179468,130.690534 C230.201758,129.628614 224.075705,128.7378 217.841905,127.986982 L230.954094,93.1777096 C239.543163,95.5352554 250.342574,97.6196384 263.933935,99.198291 C275.84876,100.582315 285.78088,101.249667 294.073643,101.383972 L290.358251,145.934909 Z M331.660449,92.1491766 C328.58016,95.5417054 319.852612,100.169916 295.248622,99.9422805 C295.152636,99.8800602 295.046026,99.8322566 294.923862,99.8223924 C294.760723,99.8034229 294.614277,99.8542615 294.48756,99.9346927 C286.232736,99.8261863 276.232326,99.1800808 264.09897,97.7710167 C250.448803,96.1851556 239.654325,94.1049458 231.128614,91.7614377 C231.048941,91.6533109 230.94954,91.5592215 230.814476,91.5083829 C230.635024,91.4400923 230.447604,91.4518533 230.284465,91.5205236 C212.147601,86.4059317 204.551022,80.0962532 201.56027,74.9422044 C199.722872,71.7757934 199.691003,69.15457 199.915983,67.647243 C215.329187,76.479503 239.223334,84.085187 266.552502,87.9261579 C278.646021,89.6258369 290.483071,90.4768146 301.506323,90.4768146 C312.037503,90.4768146 321.826212,89.6998186 330.384172,88.1454468 C331.449506,87.9519567 332.484489,87.7463258 333.496709,87.5312101 C333.555895,87.9075673 333.740659,89.8587836 331.660449,92.1491766 Z M358.291914,70.3375159 C357.258069,77.6920419 346.992843,83.6674754 330.127703,86.731071 C312.759109,89.8857206 290.253159,89.8064275 266.75358,86.503056 C239.317045,82.6469095 215.380406,75.072336 200.22405,66.3705869 C200.243399,66.3186101 200.258954,66.2791532 200.263886,66.2673923 L199.438328,65.9081074 C188.428354,59.4254258 182.286367,52.350133 183.216259,45.7327668 C184.397687,37.3258058 197.53833,30.8662673 218.473214,28.2826033 C217.63248,29.9898701 216.850552,31.7388698 216.199515,33.5739923 C215.481704,36.0753279 215.794702,40.33401 218.827188,44.7880794 C223.627263,51.8368149 236.140391,60.8910195 268.497269,63.9959687 C276.772581,64.7904168 284.295178,65.1933317 290.855256,65.1933317 C290.856773,65.1933317 290.855256,65.1933317 290.856773,65.1933317 C314.974762,65.1933317 327.403664,59.8404813 327.789127,49.1985184 C327.609674,47.0356009 327.298193,44.9284545 326.879723,42.8717671 C347.784635,51.3272899 359.524181,61.5705112 358.291914,70.3375159 Z" id="Shape"></path>
                <path d="M102.887839,147.78369 C102.490615,147.78369 102.169269,148.105035 102.169269,148.502259 C102.169269,148.899484 102.490615,149.220829 102.887839,149.220829 C108.039232,149.220829 112.230761,151.79994 112.230761,154.970145 C112.230761,158.14035 108.039231,160.71946 102.887839,160.71946 C97.7364456,160.71946 93.5449163,158.140349 93.5449163,154.970145 C93.5449163,154.57292 93.2235709,154.251575 92.8263467,154.251575 C92.4291224,154.251575 92.107777,154.57292 92.107777,154.970145 C92.107777,158.9329 96.9435154,162.156979 102.888218,162.156979 C108.832921,162.156979 113.66866,158.9329 113.66866,154.970145 C113.66828,151.007768 108.832542,147.78369 102.887839,147.78369 Z" id="Shape"></path>
                <path d="M150.321401,137.721818 C139.62177,137.721818 130.916986,142.880419 130.916986,149.220829 C130.916986,155.561239 139.62177,160.71984 150.321401,160.71984 C150.718625,160.71984 151.039971,160.398495 151.039971,160.00127 C151.039971,159.604046 150.718625,159.282701 150.321401,159.282701 C140.414321,159.282701 132.354125,154.769067 132.354125,149.221209 C132.354125,143.673351 140.413942,139.159717 150.321401,139.159717 C160.22886,139.159717 168.288676,143.673351 168.288676,149.221209 C168.288676,149.618433 168.610022,149.939778 169.007246,149.939778 C169.40447,149.939778 169.725816,149.618433 169.725816,149.221209 C169.725816,142.880419 161.021031,137.721818 150.321401,137.721818 Z" id="Shape"></path>
                <path d="M251.689797,142.307916 C250.558448,142.088248 250.013261,140.704223 250.00757,140.690186 C249.958249,140.56233 249.841396,140.473932 249.705953,140.461412 C249.571268,140.443201 249.437722,140.513389 249.366396,140.629862 C249.359947,140.641244 248.704736,141.675089 247.217517,141.357537 C245.737886,141.04302 245.490901,139.770538 245.481037,139.716664 C245.447271,139.522415 245.255678,139.391525 245.06712,139.424532 C244.871353,139.458297 244.740083,139.643441 244.77309,139.839208 C244.78561,139.912051 245.101644,141.641702 247.068036,142.060552 C248.324964,142.324988 249.149005,141.850748 249.587583,141.454282 C249.906272,142.000987 250.539099,142.815923 251.552836,143.013966 C251.732668,143.04849 251.907189,143.063666 252.077916,143.063666 C253.338258,143.063666 254.313297,142.219897 254.359583,142.179302 C254.508305,142.048791 254.523101,141.822673 254.39259,141.673192 C254.262838,141.525988 254.035202,141.508156 253.885722,141.639426 C253.874719,141.648911 252.847703,142.539345 251.689797,142.307916 Z" id="Shape"></path>
                <path d="M248.128059,149.02013 C247.568834,148.90138 247.107872,148.842195 247.016438,149.271667 C246.925005,149.701519 247.304397,150.146167 247.863622,150.264917 C248.422468,150.383667 248.949823,150.131751 249.041257,149.701899 C249.132311,149.272805 248.686904,149.13926 248.128059,149.02013 Z" id="Shape"></path>
                <path d="M242.958834,137.28324 C243.275248,137.350772 243.59887,137.384158 243.920215,137.384917 C243.920215,137.384917 243.920215,137.384917 243.920974,137.384917 C246.082753,137.384917 247.978958,135.844963 248.430435,133.724158 C248.959687,131.233445 247.366238,128.776878 244.878561,128.247625 C244.562148,128.180093 244.238525,128.145948 243.91718,128.145948 C241.754642,128.145948 239.858438,129.685903 239.40696,131.806708 C239.15087,133.013176 239.378885,134.246961 240.049272,135.281564 C240.720038,136.316168 241.753125,137.02715 242.958834,137.28324 Z M243.916801,128.864897 C244.187687,128.864897 244.461609,128.89449 244.72946,128.951399 C246.713683,129.373283 248.003618,131.250139 247.764601,133.230189 L240.211273,131.62422 C240.710174,130.010284 242.208396,128.864897 243.916801,128.864897 Z M240.068242,132.327993 L244.213486,133.209322 C243.999508,134.286797 244.689244,135.343406 245.765202,135.5718 C245.906336,135.601393 246.04747,135.616568 246.187845,135.616568 C246.332773,135.616568 246.473907,135.585458 246.614661,135.554348 C245.905956,136.24029 244.95368,136.666727 243.920974,136.666727 C243.650087,136.665968 243.376546,136.637135 243.108315,136.580226 C242.091163,136.363972 241.218939,135.764152 240.652506,134.89079 C240.155123,134.123279 239.964668,133.225636 240.068242,132.327993 Z" id="Shape"></path>
                <path d="M258.021101,140.485314 C258.337514,140.552846 258.661136,140.586232 258.982482,140.586991 C258.983241,140.586991 258.983241,140.586991 258.983241,140.586991 C261.14502,140.586991 263.041224,139.047036 263.492701,136.925473 C263.748791,135.719004 263.520776,134.48522 262.85039,133.450616 C262.179624,132.416012 261.146158,131.70503 259.940448,131.44894 C259.624035,131.381408 259.300413,131.348022 258.979446,131.348022 C256.816529,131.348022 254.919946,132.887218 254.468848,135.008782 C254.212758,136.21525 254.440773,137.449035 255.111159,138.483638 C255.782305,139.517862 256.815391,140.228844 258.021101,140.485314 Z M258.979826,132.066592 C259.250712,132.066592 259.523875,132.095425 259.791726,132.152334 C260.808498,132.368588 261.681101,132.968408 262.247534,133.84177 C262.813209,134.715511 263.006319,135.757702 262.789307,136.776751 C262.783995,136.801412 262.772993,136.823796 262.767302,136.848457 L255.2853,134.787975 C255.795963,133.193388 257.2847,132.066592 258.979826,132.066592 Z M255.134682,135.492127 L259.297757,136.638652 C259.199115,137.15235 259.292825,137.675532 259.578508,138.115627 C259.871019,138.566725 260.322496,138.877068 260.847955,138.98861 C260.987572,139.018202 261.127188,139.032999 261.265667,139.032999 C261.314608,139.032999 261.358618,139.012132 261.406801,139.008338 C260.734138,139.547455 259.886195,139.868042 258.982482,139.868042 C258.711595,139.867283 258.438054,139.838449 258.169823,139.78154 C257.152671,139.565286 256.280447,138.965467 255.714014,138.092105 C255.210181,137.31435 255.020864,136.40229 255.134682,135.492127 Z" id="Shape"></path>
                <path d="M249.184288,139.165028 C249.404715,139.685175 249.830014,139.995898 250.321328,139.995898 C250.647605,139.995898 250.966295,139.859696 251.241355,139.602088 L251.685624,139.188171 C252.168591,138.736694 252.144689,138.322776 252.087021,138.115628 C252.028595,137.906582 251.83169,137.533639 251.165477,137.392126 L250.152119,137.176631 C249.625901,137.065089 249.187703,137.199774 248.966896,137.534018 C248.780994,137.815528 248.773785,138.196438 248.947927,138.606941 L249.184288,139.165028 Z M249.565957,137.931243 C249.597446,137.883439 249.681672,137.856123 249.797007,137.856123 C249.858848,137.856123 249.928277,137.863711 250.002638,137.880024 L251.015995,138.09552 C251.25046,138.14522 251.37528,138.23855 251.395009,138.308738 C251.411702,138.36982 251.369589,138.499573 251.195069,138.663091 L250.751559,139.077008 C250.415417,139.390007 250.027298,139.31299 249.845569,138.883897 L249.609208,138.325811 C249.521188,138.119042 249.531053,137.983599 249.565957,137.931243 Z" id="Shape"></path>
            </g>
        </g>
    </g>
</svg>